HIERARCHY
ROOT Hips
{
	OFFSET 0.000000 71.427986 0.000000
	CHANNELS 6 Xposition Yposition Zposition Xrotation Yrotation Zrotation
	JOINT Pelvis
	{
		OFFSET 0.000000 0.000000 0.000000
		CHANNELS 3 Xrotation Yrotation Zrotation
		JOINT LeftUpLeg
		{
			OFFSET 6.797100 -2.508499 -1.318700
			CHANNELS 3 Xrotation Yrotation Zrotation
			JOINT LeftLeg
			{
				OFFSET 0.069008 -29.241863 0.690200
				CHANNELS 3 Xrotation Yrotation Zrotation
				JOINT LeftFoot
				{
					OFFSET -0.069008 -29.568123 -0.266800
					CHANNELS 3 Xrotation Yrotation Zrotation
					JOINT LeftToeBase
					{
						OFFSET 3.145500 -8.631000 16.059900
						CHANNELS 3 Xrotation Yrotation Zrotation
						End Site
						{
							OFFSET 0.000000 18.501587 0.000000
						}
					}
				}
			}
			JOINT Left_ShortSleeve
			{
				OFFSET 0.265923 -10.480953 1.153800
				CHANNELS 3 Xrotation Yrotation Zrotation
				End Site
				{
					OFFSET 1.725763 19.823879 0.000000
				}
			}
		}
		JOINT RightUpLeg
		{
			OFFSET -6.797100 -2.508499 -1.318700
			CHANNELS 3 Xrotation Yrotation Zrotation
			JOINT RightLeg
			{
				OFFSET -0.082453 -29.241932 0.688000
				CHANNELS 3 Xrotation Yrotation Zrotation
				JOINT RightFoot
				{
					OFFSET 0.082453 -29.568058 -0.264600
					CHANNELS 3 Xrotation Yrotation Zrotation
					JOINT RightToeBase
					{
						OFFSET -3.115300 -8.682800 16.113400
						CHANNELS 3 Xrotation Yrotation Zrotation
						End Site
						{
							OFFSET 0.000000 18.567114 0.000000
						}
					}
				}
			}
			JOINT Right_ShortSleeve
			{
				OFFSET -0.265923 -10.480953 1.153800
				CHANNELS 3 Xrotation Yrotation Zrotation
				End Site
				{
					OFFSET -1.725766 19.823910 0.000000
				}
			}
		}
	}
	JOINT Spine
	{
		OFFSET 0.000000 13.368103 0.470500
		CHANNELS 3 Xrotation Yrotation Zrotation
		JOINT Spine1
		{
			OFFSET 0.147000 13.837402 0.538800
			CHANNELS 3 Xrotation Yrotation Zrotation
			JOINT Spine2
			{
				OFFSET 0.168000 16.242897 -1.435500
				CHANNELS 3 Xrotation Yrotation Zrotation
				JOINT Neck
				{
					OFFSET 0.217200 18.631500 -1.679100
					CHANNELS 3 Xrotation Yrotation Zrotation
					JOINT Head
					{
						OFFSET 0.000000 6.599396 1.385900
						CHANNELS 3 Xrotation Yrotation Zrotation
						JOINT Hat
						{
							OFFSET -0.532200 27.220596 -10.096100
							CHANNELS 3 Xrotation Yrotation Zrotation
							End Site
							{
								OFFSET 0.000000 22.029861 0.000000
							}
						}
						JOINT HairD
						{
							OFFSET -10.777400 17.437393 -1.325900
							CHANNELS 3 Xrotation Yrotation Zrotation
							JOINT HairD1
							{
								OFFSET -3.290299 -11.051193 1.062200
								CHANNELS 3 Xrotation Yrotation Zrotation
								End Site
								{
									OFFSET 0.000000 11.579437 0.000000
								}
							}
						}
						JOINT HairB
						{
							OFFSET -10.777400 17.437393 1.467900
							CHANNELS 3 Xrotation Yrotation Zrotation
							JOINT HairB1
							{
								OFFSET -1.561200 -12.956299 3.590200
								CHANNELS 3 Xrotation Yrotation Zrotation
								End Site
								{
									OFFSET 0.000000 13.534866 0.000000
								}
							}
						}
						JOINT HairA
						{
							OFFSET 9.713100 17.437393 1.467900
							CHANNELS 3 Xrotation Yrotation Zrotation
							JOINT HairA1
							{
								OFFSET 1.561200 -12.956299 3.590200
								CHANNELS 3 Xrotation Yrotation Zrotation
								End Site
								{
									OFFSET 0.000000 13.534866 0.000000
								}
							}
						}
						JOINT HairC
						{
							OFFSET 9.713100 17.437393 -1.325900
							CHANNELS 3 Xrotation Yrotation Zrotation
							JOINT HairC1
							{
								OFFSET 3.290300 -11.051193 1.062200
								CHANNELS 3 Xrotation Yrotation Zrotation
								End Site
								{
									OFFSET 0.000000 11.579437 0.000000
								}
							}
						}
					}
				}
				JOINT LeftShoulder
				{
					OFFSET 5.101800 15.108002 -2.763700
					CHANNELS 3 Xrotation Yrotation Zrotation
					JOINT LeftArm
					{
						OFFSET 9.825497 2.506317 -1.597400
						CHANNELS 3 Xrotation Yrotation Zrotation
						JOINT LeftForeArm
						{
							OFFSET 21.966244 0.000000 0.000000
							CHANNELS 3 Xrotation Yrotation Zrotation
							JOINT LeftHand
							{
								OFFSET 33.879036 0.000000 0.000000
								CHANNELS 3 Xrotation Yrotation Zrotation
								JOINT LeftHandThumb1
								{
									OFFSET 6.715286 -2.359680 3.363841
									CHANNELS 3 Xrotation Yrotation Zrotation
									JOINT LeftHandThumb2
									{
										OFFSET 2.507072 -1.447464 1.447461
										CHANNELS 3 Xrotation Yrotation Zrotation
										JOINT LeftHandThumb3
										{
											OFFSET 2.898338 -1.673355 1.673357
											CHANNELS 3 Xrotation Yrotation Zrotation
											End Site
											{
												OFFSET -0.295959 3.727692 -0.131651
											}
										}
									}
								}
								JOINT LeftHandIndex1
								{
									OFFSET 14.190811 -0.254547 3.840278
									CHANNELS 3 Xrotation Yrotation Zrotation
									JOINT LeftHandIndex2
									{
										OFFSET 3.551727 0.000000 -0.000000
										CHANNELS 3 Xrotation Yrotation Zrotation
										JOINT LeftHandIndex3
										{
											OFFSET 2.894196 0.000000 0.000000
											CHANNELS 3 Xrotation Yrotation Zrotation
											End Site
											{
												OFFSET -1.000603 2.690872 0.366626
											}
										}
									}
								}
								JOINT LeftHandMiddle1
								{
									OFFSET 13.776489 0.000000 0.000000
									CHANNELS 3 Xrotation Yrotation Zrotation
									JOINT LeftHandMiddle2
									{
										OFFSET 3.438232 0.000000 0.000000
										CHANNELS 3 Xrotation Yrotation Zrotation
										JOINT LeftHandMiddle3
										{
											OFFSET 3.691551 0.000000 0.000000
											CHANNELS 3 Xrotation Yrotation Zrotation
											End Site
											{
												OFFSET -1.082298 3.499527 0.457670
											}
										}
									}
								}
								JOINT LeftHandRing1
								{
									OFFSET 13.966164 -0.268127 -3.067488
									CHANNELS 3 Xrotation Yrotation Zrotation
									JOINT LeftHandRing2
									{
										OFFSET 3.162567 0.000000 0.000000
										CHANNELS 3 Xrotation Yrotation Zrotation
										JOINT LeftHandRing3
										{
											OFFSET 3.324348 0.000000 0.000000
											CHANNELS 3 Xrotation Yrotation Zrotation
											End Site
											{
												OFFSET -0.861900 3.184998 0.405154
											}
										}
									}
								}
								JOINT LeftHandPinky1
								{
									OFFSET 13.131393 -0.168503 -5.746925
									CHANNELS 3 Xrotation Yrotation Zrotation
									JOINT LeftHandPinky2
									{
										OFFSET 2.849182 0.000000 0.000000
										CHANNELS 3 Xrotation Yrotation Zrotation
										JOINT LeftHandPinky3
										{
											OFFSET 2.805038 0.000000 0.000000
											CHANNELS 3 Xrotation Yrotation Zrotation
											End Site
											{
												OFFSET -0.882500 2.642609 0.325652
											}
										}
									}
								}
							}
							JOINT Left_Sleeve
							{
								OFFSET 6.592125 -0.646545 0.805568
								CHANNELS 3 Xrotation Yrotation Zrotation
								End Site
								{
									OFFSET -0.000179 20.275787 -0.000000
								}
							}
						}
					}
				}
				JOINT RightShoulder
				{
					OFFSET -5.731700 15.108002 -2.763700
					CHANNELS 3 Xrotation Yrotation Zrotation
					JOINT RightArm
					{
						OFFSET -9.825497 2.506317 -1.597400
						CHANNELS 3 Xrotation Yrotation Zrotation
						JOINT RightForeArm
						{
							OFFSET -21.966242 0.000000 0.000000
							CHANNELS 3 Xrotation Yrotation Zrotation
							JOINT RightHand
							{
								OFFSET -33.879032 0.000000 0.000000
								CHANNELS 3 Xrotation Yrotation Zrotation
								JOINT RightHandThumb1
								{
									OFFSET -6.715286 -2.359680 3.363841
									CHANNELS 3 Xrotation Yrotation Zrotation
									JOINT RightHandThumb2
									{
										OFFSET -2.507072 -1.447464 1.447461
										CHANNELS 3 Xrotation Yrotation Zrotation
										JOINT RightHandThumb3
										{
											OFFSET -2.898338 -1.673355 1.673357
											CHANNELS 3 Xrotation Yrotation Zrotation
											End Site
											{
												OFFSET 0.295959 3.727692 -0.131651
											}
										}
									}
								}
								JOINT RightHandIndex1
								{
									OFFSET -14.190811 -0.254547 3.840278
									CHANNELS 3 Xrotation Yrotation Zrotation
									JOINT RightHandIndex2
									{
										OFFSET -3.551727 0.000000 -0.000000
										CHANNELS 3 Xrotation Yrotation Zrotation
										JOINT RightHandIndex3
										{
											OFFSET -2.894196 0.000000 0.000000
											CHANNELS 3 Xrotation Yrotation Zrotation
											End Site
											{
												OFFSET 1.000603 2.690872 0.366626
											}
										}
									}
								}
								JOINT RightHandMiddle1
								{
									OFFSET -13.776489 0.000000 0.000000
									CHANNELS 3 Xrotation Yrotation Zrotation
									JOINT RightHandMiddle2
									{
										OFFSET -3.438232 0.000000 0.000000
										CHANNELS 3 Xrotation Yrotation Zrotation
										JOINT RightHandMiddle3
										{
											OFFSET -3.691551 0.000000 0.000000
											CHANNELS 3 Xrotation Yrotation Zrotation
											End Site
											{
												OFFSET 1.082298 3.499527 0.457670
											}
										}
									}
								}
								JOINT RightHandRing1
								{
									OFFSET -13.966164 -0.268127 -3.067488
									CHANNELS 3 Xrotation Yrotation Zrotation
									JOINT RightHandRing2
									{
										OFFSET -3.162567 0.000000 0.000000
										CHANNELS 3 Xrotation Yrotation Zrotation
										JOINT RightHandRing3
										{
											OFFSET -3.324348 0.000000 0.000000
											CHANNELS 3 Xrotation Yrotation Zrotation
											End Site
											{
												OFFSET 0.861900 3.184998 0.405154
											}
										}
									}
								}
								JOINT RightHandPinky1
								{
									OFFSET -13.131393 -0.168503 -5.746925
									CHANNELS 3 Xrotation Yrotation Zrotation
									JOINT RightHandPinky2
									{
										OFFSET -2.849182 0.000000 0.000000
										CHANNELS 3 Xrotation Yrotation Zrotation
										JOINT RightHandPinky3
										{
											OFFSET -2.805038 0.000000 0.000000
											CHANNELS 3 Xrotation Yrotation Zrotation
											End Site
											{
												OFFSET 0.882500 2.642609 0.325652
											}
										}
									}
								}
							}
							JOINT Right_Sleeve
							{
								OFFSET -6.592125 -0.646545 0.805568
								CHANNELS 3 Xrotation Yrotation Zrotation
								End Site
								{
									OFFSET 0.000179 20.275787 -0.000000
								}
							}
						}
					}
				}
				JOINT Bind_Right_JacketString
				{
					OFFSET -3.534800 11.969597 7.200700
					CHANNELS 3 Xrotation Yrotation Zrotation
					JOINT Bind_Right_JacketString1
					{
						OFFSET -0.319900 -6.102600 2.794100
						CHANNELS 3 Xrotation Yrotation Zrotation
						End Site
						{
							OFFSET 0.000000 6.719452 0.000000
						}
					}
				}
				JOINT Bind_Left_JacketString
				{
					OFFSET 2.904800 11.969597 7.200700
					CHANNELS 3 Xrotation Yrotation Zrotation
					JOINT Bind_Left_JacketString1
					{
						OFFSET 0.364800 -5.904503 3.186800
						CHANNELS 3 Xrotation Yrotation Zrotation
						End Site
						{
							OFFSET 0.000000 6.719513 0.000000
						}
					}
				}
				JOINT HairE
				{
					OFFSET 5.915200 17.612701 -11.592200
					CHANNELS 3 Xrotation Yrotation Zrotation
					JOINT HairE1
					{
						OFFSET 0.289200 -7.171898 -1.284500
						CHANNELS 3 Xrotation Yrotation Zrotation
						End Site
						{
							OFFSET 0.000000 7.291756 0.000000
						}
					}
				}
				JOINT HairF
				{
					OFFSET -0.864800 17.612701 -11.592200
					CHANNELS 3 Xrotation Yrotation Zrotation
					JOINT HairF1
					{
						OFFSET 0.000000 -14.087097 -2.127501
						CHANNELS 3 Xrotation Yrotation Zrotation
						End Site
						{
							OFFSET 0.000000 14.246841 0.000000
						}
					}
				}
				JOINT HairG
				{
					OFFSET -8.087700 17.612701 -11.592200
					CHANNELS 3 Xrotation Yrotation Zrotation
					JOINT HairG1
					{
						OFFSET -0.293600 -6.081398 -0.910100
						CHANNELS 3 Xrotation Yrotation Zrotation
						End Site
						{
							OFFSET 0.000000 6.156120 0.000000
						}
					}
				}
			}
		}
	}
	JOINT Pouch
	{
		OFFSET 0.000000 4.394501 10.847300
		CHANNELS 3 Xrotation Yrotation Zrotation
		End Site
		{
			OFFSET 0.000000 21.880577 0.000000
		}
	}
	JOINT Bag
	{
		OFFSET -13.229000 4.813004 -0.593300
		CHANNELS 3 Xrotation Yrotation Zrotation
		End Site
		{
			OFFSET 0.000000 21.880577 0.000000
		}
	}
	JOINT OccupyGuyFacialAnim_Joint
	{
		OFFSET 1.000000 -70.206398 -1.655000
		CHANNELS 3 Xrotation Yrotation Zrotation
		End Site
		{
			OFFSET 0.000000 21.880577 0.000000
		}
	}
}
MOTION
Frames: 4
Frame Time: 0.033333
0.145850 69.883331 1.250424 -9.028215 -5.350880 8.272090 0.000000 -0.000000 -0.000000 10.228386 15.237107 -13.536249 11.815587 0.306018 -0.031977 -11.401470 -1.117341 4.506251 -0.000000 0.000001 0.000000 0.000000 -0.000001 0.000000 -7.983589 -13.698605 -24.427642 28.154697 0.707732 0.321158 -11.982692 -9.940942 8.799748 -0.000000 -0.000000 -0.000000 -0.000002 0.000000 -0.000000 2.404676 1.293256 -4.968980 4.666351 1.729999 -2.802044 4.685182 1.690012 -2.793393 -2.808688 -0.350891 -5.041349 -1.723896 -2.292232 2.025746 -0.000000 0.000000 0.000000 -0.000000 0.000000 0.000000 -0.000000 0.000000 0.000000 -0.000000 0.000000 0.000000 0.000000 -0.000000 -0.000000 -0.000000 0.000000 0.000000 0.000000 -0.000000 -0.000000 -0.000000 0.000000 0.000000 -0.000000 0.000000 0.000000 4.034699 -13.464722 -7.420037 5.772116 3.721082 -60.112953 11.491863 -25.077092 -5.820594 -8.196588 -3.557932 7.163522 -21.992174 17.035861 -2.008535 5.703915 22.366214 5.519995 -0.000001 -0.000002 -0.000001 -2.899145 12.800604 -7.221972 2.739039 6.814367 -29.837640 0.000001 -0.000000 0.000002 -8.983049 7.076829 -9.539566 4.275436 7.169708 -39.702394 0.000002 0.000001 -0.000001 -16.256878 8.648364 -21.626554 4.109025 6.928498 -36.756960 -0.000001 -0.000001 -0.000004 -21.808801 10.569998 -31.866896 1.910799 2.504671 -24.353745 -0.000000 -0.000000 -0.000004 0.000002 -0.000000 0.000000 3.919289 12.466690 7.900330 -3.939685 -11.622632 68.565120 15.857356 12.603586 4.140718 -8.305450 0.914273 -6.259001 -21.991992 -17.035465 2.009244 5.703639 -22.367061 -5.520865 -0.000000 0.000002 0.000004 -2.899134 -12.801053 7.221845 2.738668 -6.813200 29.837787 0.000000 -0.000000 -0.000002 -8.983049 -7.076428 9.538888 4.275423 -7.169917 39.704071 0.000001 -0.000001 -0.000001 -16.256646 -8.649595 21.626355 4.109553 -6.928344 36.756335 0.000000 0.000000 -0.000005 -21.809409 -10.568775 31.865930 1.910732 -2.505950 24.353714 -0.000002 0.000001 0.000002 0.000002 0.000000 0.000001 0.000000 0.000000 0.000000 0.000000 0.000000 -0.000000 0.000000 0.000000 0.000000 0.000000 0.000000 0.000000 0.000000 0.000000 0.000000 0.000000 0.000000 0.000000 0.000000 0.000000 0.000000 0.000000 0.000000 0.000000 0.000000 0.000000 0.000000 0.000000 0.000000 0.000000 0.000000 -0.000000 -0.000000 0.000000 -0.000000 -0.000000 0.000000 -0.000000 -0.000000 
0.093175 69.885643 1.286480 -9.078213 -5.390853 8.112913 -0.000000 0.000000 0.000000 10.027213 14.941746 -13.300261 12.124883 0.291774 -0.041350 -11.588541 -0.712181 4.486058 0.000000 0.000000 -0.000000 -0.000000 0.000001 0.000001 -7.841118 -13.788782 -24.223148 28.092619 0.705118 0.320640 -12.013540 -9.874874 8.746698 -0.000000 0.000001 -0.000000 -0.000000 0.000000 -0.000002 2.420254 1.326267 -4.917779 4.690200 1.791889 -2.709731 4.706296 1.745838 -2.700008 -2.502452 -0.324650 -5.001437 -1.990621 -2.217853 1.872248 -0.000000 0.000000 -0.000000 -0.000000 0.000000 -0.000000 -0.000000 0.000000 -0.000000 -0.000000 0.000000 0.000000 0.000000 0.000000 0.000001 -0.000000 0.000000 0.000000 0.000000 0.000000 0.000001 -0.000000 0.000000 -0.000000 -0.000000 0.000000 -0.000000 3.892109 -13.991522 -7.693416 6.352041 4.018982 -60.483613 10.181512 -25.698401 -5.305200 -8.126937 -5.052686 6.686261 -21.992171 17.035854 -2.008543 5.703899 22.366209 5.520042 -0.000000 -0.000001 0.000000 -2.899151 12.800592 -7.222015 2.739060 6.814367 -29.837627 -0.000000 0.000001 -0.000000 -8.983063 7.076820 -9.539573 4.275443 7.169707 -39.702370 0.000001 -0.000001 -0.000003 -16.256882 8.648361 -21.626599 4.109016 6.928495 -36.756923 -0.000001 -0.000000 -0.000004 -21.808804 10.570005 -31.866914 1.910780 2.504671 -24.353748 0.000000 -0.000000 -0.000001 0.000002 0.000001 -0.000000 3.834958 12.912850 8.026430 -4.215576 -11.973137 68.015768 17.375149 12.145974 4.556093 -8.140410 5.255665 -5.358703 -22.137750 -16.693035 2.098527 5.586248 -22.004349 -5.461265 -0.000000 0.000000 0.000003 -2.908922 -12.726504 6.711606 2.696524 -6.739163 29.305483 0.000000 -0.000000 -0.000002 -8.997249 -6.996353 9.007810 4.221265 -7.104312 39.168516 0.000000 -0.000001 -0.000004 -16.288917 -8.572660 21.095560 4.058199 -6.859098 36.221514 0.000001 -0.000001 -0.000004 -21.855688 -10.494396 31.345353 1.873976 -2.426562 23.823799 -0.000000 0.000001 -0.000003 0.000001 0.000001 -0.000001 -0.000000 0.000000 0.000000 0.000000 0.000000 0.000000 -0.000000 0.000000 0.000000 -0.000000 0.000000 0.000000 -0.000000 0.000000 0.000000 0.000000 0.000000 0.000000 -0.000000 0.000000 0.000000 -0.000000 0.000000 0.000000 -0.000000 0.000000 0.000000 0.000000 0.000000 0.000000 -0.000000 0.000000 0.000000 -0.000000 0.000000 0.000000 -0.000000 0.000000 0.000000 
-0.066688 69.876686 1.316467 -9.244243 -5.532376 7.936196 -0.000000 0.000001 0.000000 9.765823 14.654226 -12.931276 12.747602 0.264304 -0.057006 -11.921770 -0.180959 4.377757 0.000000 0.000001 0.000000 -0.000000 -0.000000 0.000000 -7.625762 -13.705373 -23.901608 28.274214 0.704322 0.321657 -12.214134 -9.896708 8.595661 -0.000000 -0.000001 0.000000 -0.000000 0.000003 -0.000000 2.488040 1.342083 -4.886907 4.831258 1.819066 -2.577542 4.850600 1.774720 -2.567101 -2.575413 -0.113884 -5.091273 -2.477285 -1.975576 1.639088 0.000000 -0.000000 0.000000 0.000000 -0.000000 0.000000 0.000000 -0.000000 0.000000 0.000000 -0.000000 0.000001 0.000000 0.000000 0.000000 0.000000 -0.000000 0.000001 0.000000 0.000000 0.000000 0.000000 -0.000000 0.000000 0.000000 -0.000000 0.000000 3.685711 -14.791022 -8.028563 6.628760 4.599113 -61.358895 6.255583 -27.292316 -5.034371 -8.076797 -7.163091 6.812137 -21.992166 17.035863 -2.008520 5.703910 22.366213 5.520025 -0.000000 0.000003 0.000001 -2.899163 12.800604 -7.221977 2.739063 6.814362 -29.837630 0.000001 0.000001 0.000002 -8.983031 7.076820 -9.539522 4.275440 7.169720 -39.702404 0.000002 0.000000 -0.000001 -16.256882 8.648366 -21.626578 4.109033 6.928490 -36.756929 -0.000001 0.000000 -0.000002 -21.808806 10.569994 -31.866866 1.910790 2.504683 -24.353777 -0.000002 0.000001 0.000001 0.000000 -0.000002 0.000000 3.618522 13.612995 8.573620 -3.644136 -12.234779 67.083823 16.029057 13.582335 4.987232 -8.101608 8.990343 -4.813509 -22.493616 -15.841075 2.324452 5.297255 -21.105150 -5.307852 -0.000000 -0.000001 0.000000 -2.928151 -12.547387 5.513271 2.601192 -6.566355 28.073852 0.000001 0.000000 -0.000001 -9.023993 -6.809591 7.780653 4.097755 -6.950745 37.930670 -0.000000 0.000000 0.000001 -16.355137 -8.392476 19.866869 3.941275 -6.697258 34.985424 -0.000000 -0.000002 0.000001 -21.958513 -10.321016 30.128651 1.793890 -2.241852 22.598577 -0.000001 -0.000002 0.000000 0.000002 -0.000000 0.000001 -0.000000 0.000000 0.000000 -0.000000 -0.000000 0.000000 -0.000000 0.000000 0.000000 -0.000000 0.000000 0.000000 -0.000000 0.000000 0.000000 -0.000000 -0.000000 0.000000 -0.000000 0.000000 0.000000 -0.000000 0.000000 0.000000 -0.000000 0.000000 0.000000 -0.000000 -0.000000 0.000000 -0.000000 0.000001 0.000000 -0.000000 0.000001 0.000000 -0.000000 0.000001 0.000000 
-0.268303 69.842758 1.271080 -9.784640 -5.900722 7.689129 -0.000000 0.000000 -0.000000 9.600716 14.525118 -12.461258 13.865449 0.226264 -0.080874 -12.465046 0.437696 4.250484 0.000000 0.000001 0.000000 -0.000000 -0.000000 0.000000 -7.169784 -13.315127 -23.489560 28.754328 0.707069 0.324195 -12.516278 -9.999578 8.386713 -0.000000 -0.000001 -0.000000 -0.000000 0.000000 0.000000 2.738394 1.322217 -4.782124 5.358130 1.792338 -2.280885 5.378363 1.754557 -2.272183 -3.959435 0.310530 -4.656856 -3.490031 -0.994960 0.032467 -0.000000 0.000000 -0.000000 -0.000000 0.000000 -0.000000 -0.000000 0.000000 -0.000000 -0.000000 0.000000 0.000000 -0.000000 -0.000000 0.000001 -0.000000 0.000000 0.000000 -0.000000 -0.000000 0.000001 -0.000000 0.000000 -0.000000 -0.000000 0.000000 -0.000000 3.562483 -15.634122 -7.530729 11.634362 6.195142 -64.012144 -8.881401 -41.540002 -9.845661 -8.036612 -6.994533 10.454323 -21.992176 17.035856 -2.008528 5.703925 22.366209 5.520017 -0.000000 -0.000000 -0.000001 -2.899161 12.800610 -7.221995 2.739059 6.814361 -29.837610 0.000003 -0.000000 -0.000000 -8.983043 7.076826 -9.539571 4.275429 7.169703 -39.702384 0.000001 0.000000 -0.000001 -16.256892 8.648367 -21.626592 4.109026 6.928489 -36.756933 0.000002 -0.000003 -0.000002 -21.808791 10.570004 -31.866924 1.910774 2.504681 -24.353728 -0.000002 0.000001 0.000001 0.000000 0.000001 0.000001 3.577443 13.243599 9.128713 0.161697 -9.699194 66.152103 4.581534 24.047732 5.972995 -8.351422 6.606148 -4.639662 -23.041635 -14.536173 2.679860 4.853107 -19.727492 -5.064332 0.000001 0.000000 0.000000 -2.948784 -12.282817 3.758815 2.469934 -6.313202 26.295767 -0.000001 0.000001 -0.000005 -9.053898 -6.538722 6.010582 3.925173 -6.724540 36.145481 -0.000001 -0.000002 -0.000001 -16.441177 -8.129301 18.091505 3.778446 -6.459394 33.202714 0.000001 -0.000002 -0.000000 -22.097532 -10.064546 28.355080 1.686201 -1.972362 20.830964 -0.000002 -0.000000 0.000002 -0.000000 0.000001 -0.000001 -0.000000 -0.000000 0.000000 -0.000000 -0.000000 0.000000 -0.000000 -0.000000 0.000000 -0.000000 -0.000000 0.000000 -0.000000 -0.000000 0.000000 -0.000000 -0.000000 0.000000 -0.000000 -0.000000 0.000000 -0.000000 -0.000000 0.000000 -0.000000 -0.000000 0.000000 -0.000000 -0.000000 0.000000 -0.000000 0.000000 -0.000000 -0.000000 0.000000 -0.000000 -0.000000 0.000000 -0.000000 
